<?xml version="1.0" standalone="no"?>
<!DOCTYPE svg PUBLIC "-//W3C//DTD SVG 20010904//EN"
 "http://www.w3.org/TR/2001/REC-SVG-20010904/DTD/svg10.dtd">
<svg version="1.0" xmlns="http://www.w3.org/2000/svg"
 width="246.000000pt" height="246.000000pt" viewBox="0 0 246.000000 246.000000"
 preserveAspectRatio="xMidYMid meet">
<metadata>
Created by potrace 1.11, written by Peter Selinger 2001-2013
</metadata>
<g transform="translate(0.000000,246.000000) scale(0.100000,-0.100000)"
fill="#000000" stroke="none">
<path d="M504 2223 c-38 -7 -103 -71 -114 -111 -6 -23 -10 -253 -10 -623 l0
-586 -70 -5 c-38 -3 -77 -11 -85 -18 -8 -7 -15 -9 -15 -4 0 5 -7 -2 -16 -14
-8 -12 -21 -19 -27 -16 -7 4 -9 3 -4 -1 4 -5 1 -15 -7 -24 -22 -25 -33 -101
-21 -139 11 -33 75 -115 83 -107 3 2 13 0 24 -6 11 -6 46 -11 79 -11 l59 -1 0
-96 c0 -80 4 -104 23 -141 28 -56 73 -87 140 -95 29 -4 287 -4 574 -1 488 5
525 6 578 25 112 39 174 91 267 222 106 148 180 321 213 490 19 104 19 301 0
415 -32 181 -124 403 -239 578 -93 141 -157 195 -290 245 l-71 26 -525 1
c-289 1 -535 0 -546 -3z"/>
</g>
</svg>
